<mxfile host="www.draw.io" modified="2019-11-08T04:04:17.025Z" agent="Mozilla/5.0 (Windows NT 10.0; Win64; x64) AppleWebKit/537.36 (KHTML, like Gecko) Chrome/68.0.3440.75 Safari/537.36" etag="3hSwPnebDe4SGEShOPba" version="12.2.2" type="github" pages="1">
  <diagram name="Page-1" id="7a6c530e-6e37-e111-ec74-82921da8cc10">
    <mxGraphModel dx="1408" dy="736" grid="1" gridSize="10" guides="1" tooltips="1" connect="1" arrows="1" fold="1" page="1" pageScale="1.5" pageWidth="1169" pageHeight="826" background="none" math="0" shadow="0">
      <root>
        <mxCell id="0" style=";html=1;"/>
        <mxCell id="1" style=";html=1;" parent="0"/>
        <mxCell id="23046e2b9bb16c14-116" value="&lt;font style=&quot;font-size: 16px ; line-height: 100%&quot;&gt;逻辑架构&lt;/font&gt;" style="whiteSpace=wrap;html=1;rounded=1;shadow=0;strokeColor=none;strokeWidth=2;fillColor=#009BFF;fontSize=20;fontColor=#FFFFFF;align=center;arcSize=3;verticalAlign=top;spacingTop=4;" parent="1" vertex="1">
          <mxGeometry x="703" y="260" width="577" height="500" as="geometry"/>
        </mxCell>
        <mxCell id="23046e2b9bb16c14-27" value="" style="rounded=1;whiteSpace=wrap;html=1;shadow=0;strokeWidth=2;fillColor=#8BC63E;fontSize=12;fontColor=#000000;align=center;strokeColor=none;arcSize=3;" parent="1" vertex="1">
          <mxGeometry x="726" y="300" width="530" height="440" as="geometry"/>
        </mxCell>
        <mxCell id="23046e2b9bb16c14-2" value="" style="rounded=1;whiteSpace=wrap;html=1;shadow=0;strokeWidth=2;fillColor=none;fontSize=12;fontColor=#000000;align=center;strokeColor=#FFFFFF;arcSize=10;" parent="1" vertex="1">
          <mxGeometry x="878" y="380.5" width="160" height="241" as="geometry"/>
        </mxCell>
        <mxCell id="23046e2b9bb16c14-54" value="数据模型" style="rounded=1;whiteSpace=wrap;html=1;shadow=0;strokeWidth=2;fillColor=none;fontSize=11;fontColor=#FFFFFF;align=center;strokeColor=#FFFFFF;dashed=1;verticalAlign=top;" parent="1" vertex="1">
          <mxGeometry x="958" y="401.5" width="70" height="211" as="geometry"/>
        </mxCell>
        <mxCell id="23046e2b9bb16c14-1" value="" style="rounded=1;whiteSpace=wrap;html=1;shadow=0;strokeWidth=2;fillColor=none;fontSize=12;fontColor=#000000;align=center;strokeColor=#FFFFFF;" parent="1" vertex="1">
          <mxGeometry x="748" y="380.5" width="110" height="240" as="geometry"/>
        </mxCell>
        <mxCell id="23046e2b9bb16c14-73" style="html=1;startArrow=none;startFill=0;startSize=10;endArrow=none;endFill=0;endSize=10;strokeWidth=3;fontSize=11;fontColor=#FFFFFF;strokeColor=#FFFFFF;rounded=0;exitX=1;exitY=0.5;exitDx=0;exitDy=0;" parent="1" source="We76njLKXEHjdysK864W-2" target="23046e2b9bb16c14-7" edge="1">
          <mxGeometry relative="1" as="geometry">
            <mxPoint x="825" y="526.5" as="sourcePoint"/>
          </mxGeometry>
        </mxCell>
        <mxCell id="23046e2b9bb16c14-7" value="" style="shadow=0;dashed=0;html=1;strokeColor=none;labelPosition=center;verticalLabelPosition=bottom;verticalAlign=top;shape=mxgraph.mscae.cloud.azure_load_balancer_feature;fillColor=#FFFFFF;rounded=1;fontSize=12;fontColor=#000000;align=center;" parent="1" vertex="1">
          <mxGeometry x="893" y="489" width="50" height="50" as="geometry"/>
        </mxCell>
        <mxCell id="23046e2b9bb16c14-75" style="html=1;startArrow=none;startFill=0;startSize=10;endArrow=none;endFill=0;endSize=10;strokeWidth=3;fontSize=11;fontColor=#FFFFFF;entryX=0.793;entryY=0.26;entryPerimeter=0;strokeColor=#FFFFFF;rounded=0;exitX=0;exitY=0.5;exitDx=0;exitDy=0;" parent="1" source="We76njLKXEHjdysK864W-3" target="23046e2b9bb16c14-7" edge="1">
          <mxGeometry relative="1" as="geometry">
            <mxPoint x="968" y="490.48425849212936" as="sourcePoint"/>
          </mxGeometry>
        </mxCell>
        <mxCell id="23046e2b9bb16c14-76" style="html=1;entryX=1.016;entryY=0.509;entryPerimeter=0;startArrow=none;startFill=0;startSize=10;endArrow=none;endFill=0;endSize=10;strokeWidth=3;fontSize=11;fontColor=#FFFFFF;strokeColor=#FFFFFF;rounded=0;exitX=0;exitY=0.5;exitDx=0;exitDy=0;" parent="1" source="We76njLKXEHjdysK864W-4" target="23046e2b9bb16c14-7" edge="1">
          <mxGeometry relative="1" as="geometry">
            <mxPoint x="968" y="526.7286585365855" as="sourcePoint"/>
          </mxGeometry>
        </mxCell>
        <mxCell id="23046e2b9bb16c14-77" style="html=1;entryX=0.802;entryY=0.762;entryPerimeter=0;startArrow=none;startFill=0;startSize=10;endArrow=none;endFill=0;endSize=10;strokeWidth=3;fontSize=11;fontColor=#FFFFFF;strokeColor=#FFFFFF;rounded=0;" parent="1" target="23046e2b9bb16c14-7" edge="1">
          <mxGeometry relative="1" as="geometry">
            <mxPoint x="968" y="570.5" as="sourcePoint"/>
          </mxGeometry>
        </mxCell>
        <mxCell id="23046e2b9bb16c14-55" value="" style="rounded=1;whiteSpace=wrap;html=1;shadow=0;strokeWidth=2;fillColor=none;fontSize=12;fontColor=#000000;align=center;strokeColor=#FFFFFF;arcSize=9;" parent="1" vertex="1">
          <mxGeometry x="1073" y="380.5" width="160" height="241" as="geometry"/>
        </mxCell>
        <mxCell id="23046e2b9bb16c14-56" value="&lt;span&gt;生成引擎&lt;/span&gt;" style="rounded=1;whiteSpace=wrap;html=1;shadow=0;strokeWidth=2;fillColor=none;fontSize=11;fontColor=#FFFFFF;align=center;strokeColor=#FFFFFF;dashed=1;verticalAlign=top;" parent="1" vertex="1">
          <mxGeometry x="1153" y="401.5" width="70" height="211" as="geometry"/>
        </mxCell>
        <mxCell id="23046e2b9bb16c14-74" style="html=1;startArrow=none;startFill=0;startSize=10;endArrow=none;endFill=0;endSize=10;strokeWidth=3;fontSize=11;fontColor=#FFFFFF;strokeColor=#FFFFFF;rounded=0;edgeStyle=elbowEdgeStyle;elbow=vertical;" parent="1" source="23046e2b9bb16c14-58" target="23046e2b9bb16c14-2" edge="1">
          <mxGeometry relative="1" as="geometry"/>
        </mxCell>
        <mxCell id="23046e2b9bb16c14-79" style="html=1;startArrow=none;startFill=0;startSize=10;endArrow=none;endFill=0;endSize=10;strokeWidth=3;fontSize=11;fontColor=#FFFFFF;strokeColor=#FFFFFF;rounded=0;exitX=0.796;exitY=0.241;exitPerimeter=0;" parent="1" source="23046e2b9bb16c14-58" edge="1">
          <mxGeometry relative="1" as="geometry">
            <mxPoint x="1163" y="490.1320598006646" as="targetPoint"/>
          </mxGeometry>
        </mxCell>
        <mxCell id="23046e2b9bb16c14-80" style="html=1;startArrow=none;startFill=0;startSize=10;endArrow=none;endFill=0;endSize=10;strokeWidth=3;fontSize=11;fontColor=#FFFFFF;strokeColor=#FFFFFF;rounded=0;exitX=0.789;exitY=0.767;exitPerimeter=0;" parent="1" source="23046e2b9bb16c14-58" edge="1">
          <mxGeometry relative="1" as="geometry">
            <mxPoint x="1163" y="562.5421139554087" as="targetPoint"/>
          </mxGeometry>
        </mxCell>
        <mxCell id="23046e2b9bb16c14-58" value="" style="shadow=0;dashed=0;html=1;strokeColor=none;labelPosition=center;verticalLabelPosition=bottom;verticalAlign=top;shape=mxgraph.mscae.cloud.azure_load_balancer_feature;fillColor=#FFFFFF;rounded=1;fontSize=12;fontColor=#000000;align=center;" parent="1" vertex="1">
          <mxGeometry x="1088" y="501.5" width="50" height="50" as="geometry"/>
        </mxCell>
        <mxCell id="23046e2b9bb16c14-85" value="" style="rounded=1;whiteSpace=wrap;html=1;shadow=0;strokeWidth=2;fillColor=none;fontSize=12;fontColor=#FFFFFF;align=center;strokeColor=#FFFFFF;arcSize=6;verticalAlign=top;" parent="1" vertex="1">
          <mxGeometry x="750" y="640" width="480" height="80" as="geometry"/>
        </mxCell>
        <mxCell id="23046e2b9bb16c14-97" value="VHD" style="shadow=0;html=1;strokeColor=none;fillColor=#FFFFFF;labelPosition=center;verticalLabelPosition=top;verticalAlign=bottom;shape=mxgraph.azure.vhd;rounded=0;fontSize=10;fontColor=#FFFFFF;align=center;" parent="1" vertex="1">
          <mxGeometry x="886" y="658" width="40" height="50" as="geometry"/>
        </mxCell>
        <mxCell id="23046e2b9bb16c14-99" value="+" style="text;html=1;strokeColor=none;fillColor=none;align=center;verticalAlign=middle;whiteSpace=wrap;rounded=1;shadow=0;fontSize=30;fontColor=#FFFFFF;fontStyle=1" parent="1" vertex="1">
          <mxGeometry x="987.5" y="662.5" width="40" height="35" as="geometry"/>
        </mxCell>
        <mxCell id="We76njLKXEHjdysK864W-1" value="&lt;font color=&quot;#ffffff&quot;&gt;API&lt;/font&gt;" style="rounded=1;whiteSpace=wrap;html=1;shadow=0;strokeWidth=2;fillColor=none;fontSize=12;fontColor=#000000;align=center;strokeColor=#FFFFFF;" parent="1" vertex="1">
          <mxGeometry x="748" y="320" width="481" height="50" as="geometry"/>
        </mxCell>
        <mxCell id="We76njLKXEHjdysK864W-2" value="解析器" style="icon;html=1;image=img/clipart/Gear_128x128.png;fontColor=#FFFFFF;labelBackgroundColor=none;strokeColor=none;" parent="1" vertex="1">
          <mxGeometry x="772" y="504.5" width="60" height="60" as="geometry"/>
        </mxCell>
        <mxCell id="We76njLKXEHjdysK864W-3" value="&lt;font color=&quot;#97d077&quot;&gt;文本&lt;/font&gt;" style="rounded=1;whiteSpace=wrap;html=1;strokeColor=#FFFFFF;" parent="1" vertex="1">
          <mxGeometry x="969" y="440.5" width="48" height="35" as="geometry"/>
        </mxCell>
        <mxCell id="We76njLKXEHjdysK864W-4" value="&lt;font color=&quot;#97d077&quot;&gt;表格&lt;/font&gt;" style="rounded=1;whiteSpace=wrap;html=1;strokeColor=#FFFFFF;" parent="1" vertex="1">
          <mxGeometry x="969" y="496.5" width="48" height="35" as="geometry"/>
        </mxCell>
        <mxCell id="We76njLKXEHjdysK864W-5" value="&lt;font color=&quot;#97d077&quot;&gt;图片&lt;/font&gt;" style="rounded=1;whiteSpace=wrap;html=1;strokeColor=#FFFFFF;" parent="1" vertex="1">
          <mxGeometry x="969" y="553.5" width="48" height="35" as="geometry"/>
        </mxCell>
        <mxCell id="We76njLKXEHjdysK864W-6" value="PDF引擎" style="verticalLabelPosition=bottom;html=1;verticalAlign=top;align=center;strokeColor=none;fillColor=#FFFFFF;shape=mxgraph.azure.automation;pointerEvents=1;fontColor=#FFFFFF;" parent="1" vertex="1">
          <mxGeometry x="1163" y="446.5" width="50" height="45" as="geometry"/>
        </mxCell>
        <mxCell id="We76njLKXEHjdysK864W-7" value="Excel引擎" style="verticalLabelPosition=bottom;html=1;verticalAlign=top;align=center;strokeColor=none;fillColor=#FFFFFF;shape=mxgraph.azure.automation;pointerEvents=1;fontColor=#FFFFFF;" parent="1" vertex="1">
          <mxGeometry x="1163" y="534.5" width="50" height="45" as="geometry"/>
        </mxCell>
        <mxCell id="We76njLKXEHjdysK864W-8" value="编码器" style="icon;html=1;image=img/clipart/Gear_128x128.png;fontColor=#FFFFFF;labelBackgroundColor=none;strokeColor=none;" parent="1" vertex="1">
          <mxGeometry x="773" y="410.5" width="60" height="60" as="geometry"/>
        </mxCell>
        <mxCell id="We76njLKXEHjdysK864W-9" style="html=1;startArrow=none;startFill=0;startSize=10;endArrow=none;endFill=0;endSize=10;strokeWidth=3;fontSize=11;fontColor=#FFFFFF;strokeColor=#FFFFFF;rounded=0;exitX=1;exitY=0.5;exitDx=0;exitDy=0;entryX=0.16;entryY=0.45;entryDx=0;entryDy=0;entryPerimeter=0;" parent="1" source="We76njLKXEHjdysK864W-8" target="23046e2b9bb16c14-7" edge="1">
          <mxGeometry relative="1" as="geometry">
            <mxPoint x="842" y="544.5" as="sourcePoint"/>
            <mxPoint x="903" y="529.9593023255813" as="targetPoint"/>
          </mxGeometry>
        </mxCell>
        <mxCell id="We76njLKXEHjdysK864W-10" value="数据库" style="verticalLabelPosition=top;html=1;verticalAlign=bottom;align=center;strokeColor=none;fillColor=#FFFFFF;shape=mxgraph.azure.sql_database;labelBackgroundColor=none;fontColor=#FFFFFF;labelPosition=center;" parent="1" vertex="1">
          <mxGeometry x="1089" y="655" width="37.5" height="50" as="geometry"/>
        </mxCell>
      </root>
    </mxGraphModel>
  </diagram>
</mxfile>
